<?xml version="1.0" encoding="iso-8859-1"?>
<!-- Generator: Adobe Illustrator 19.0.0, SVG Export Plug-In . SVG Version: 6.00 Build 0)  -->
<svg version="1.1" id="Layer_1" xmlns="http://www.w3.org/2000/svg" xmlns:xlink="http://www.w3.org/1999/xlink" x="0px" y="0px"
	 viewBox="0 0 511.893 511.893" style="enable-background:new 0 0 511.893 511.893;" xml:space="preserve">
<g>
	<g>
		<path d="M476.84,248.107L233.64,3.2c-2.027-2.027-4.693-3.2-7.573-3.2H42.6c-5.867,0-10.667,4.8-10.667,10.667
			c0,2.88,1.173,5.547,3.093,7.573l237.76,237.44L35.24,493.76c-4.16,4.16-4.16,10.88,0,15.04c2.027,2.027,4.693,3.093,7.573,3.093
			H226.28c2.88,0,5.547-1.173,7.573-3.2L476.84,263.04C481,258.987,481,252.267,476.84,248.107z M221.8,490.667H68.52
			l226.987-227.52c4.16-4.16,4.16-10.88,0-15.04L68.413,21.333h153.28l232.64,234.347L221.8,490.667z"/>
	</g>
</g>
<g>
</g>
<g>
</g>
<g>
</g>
<g>
</g>
<g>
</g>
<g>
</g>
<g>
</g>
<g>
</g>
<g>
</g>
<g>
</g>
<g>
</g>
<g>
</g>
<g>
</g>
<g>
</g>
<g>
</g>
</svg>
