<?xml version="1.0" encoding="UTF-8" standalone="no"?>
<svg
   xmlns:dc="http://purl.org/dc/elements/1.1/"
   xmlns:cc="http://creativecommons.org/ns#"
   xmlns:rdf="http://www.w3.org/1999/02/22-rdf-syntax-ns#"
   xmlns:svg="http://www.w3.org/2000/svg"
   xmlns="http://www.w3.org/2000/svg"
   xmlns:sodipodi="http://sodipodi.sourceforge.net/DTD/sodipodi-0.dtd"
   xmlns:inkscape="http://www.inkscape.org/namespaces/inkscape"
   version="1.1"
   id="svg2"
   xml:space="preserve"
   width="170.66667"
   height="177.33333"
   viewBox="0 0 170.66667 177.33333"
   sodipodi:docname="header-logo.eps"><metadata
     id="metadata8"><rdf:RDF><cc:Work
         rdf:about=""><dc:format>image/svg+xml</dc:format><dc:type
           rdf:resource="http://purl.org/dc/dcmitype/StillImage" /></cc:Work></rdf:RDF></metadata><defs
     id="defs6"><clipPath
       clipPathUnits="userSpaceOnUse"
       id="clipPath20"><path
         d="m 639.414,1323.86 c -293.019,0 -530.551,-237.53 -530.551,-530.547 0,-293.012 237.532,-530.543 530.551,-530.543 293.016,0 530.546,237.531 530.546,530.543 0,293.017 -237.53,530.547 -530.546,530.547 z"
         clip-rule="evenodd"
         id="path18" /></clipPath><linearGradient
       x1="-57.063999"
       y1="0"
       x2="57.063999"
       y2="0"
       gradientUnits="userSpaceOnUse"
       gradientTransform="matrix(-6.19231,7.85209,-7.85209,-6.19231,685.032,846.588)"
       spreadMethod="pad"
       id="linearGradient26"><stop
         style="stop-opacity:1;stop-color:#0c1a35"
         offset="0"
         id="stop22" /><stop
         style="stop-opacity:1;stop-color:#2e5884"
         offset="1"
         id="stop24" /></linearGradient><clipPath
       clipPathUnits="userSpaceOnUse"
       id="clipPath40"><path
         d="m 818.418,1161.04 c -11.672,0 -24.168,-4.52 -35.512,-9.54 v -0.01 c -3.179,-1.31 -6.332,-2.88 -9.457,-4.69 15.86,-6.14 31.199,-13.32 45.938,-21.46 l 1.14,-0.64 c 54.754,-29.67 81.036,-186.884 81.036,-328.692 0,-84.16 -24.227,-363.18 -81.934,-270.426 -12.594,20.238 -17.746,-76.18 -35.113,-84.703 10.882,-6.461 22.23,-9.899 33.902,-9.899 80.703,0 146.129,163.43 146.129,365.028 0,201.605 -65.426,365.032 -146.129,365.032 z"
         clip-rule="evenodd"
         id="path38" /></clipPath><linearGradient
       x1="-19.458599"
       y1="0"
       x2="19.458599"
       y2="0"
       gradientUnits="userSpaceOnUse"
       gradientTransform="matrix(-3.85745,9.22605,-9.22605,-3.85745,893.136,966.797)"
       spreadMethod="pad"
       id="linearGradient46"><stop
         style="stop-opacity:1;stop-color:#1f3863"
         offset="0"
         id="stop42" /><stop
         style="stop-opacity:1;stop-color:#1fd1ff"
         offset="1"
         id="stop44" /></linearGradient><clipPath
       clipPathUnits="userSpaceOnUse"
       id="clipPath56"><path
         d="m 457.18,1161.04 c 11.672,0 23.019,-3.44 33.902,-9.9 -19.144,-4.59 -16.144,-117.7 -29.691,-95.75 -41.938,67.96 -56.758,-19.33 -67.036,-73.843 -10.476,-55.602 -15.5,-119.965 -15.5,-185.539 0,-142.731 31.723,-302.492 81.305,-331.492 1.063,-0.571 2.133,-1.137 3.199,-1.696 0.567,-0.277 1.125,-0.574 1.68,-0.875 10.473,-5.422 21.227,-10.363 32.242,-14.804 -6.914,-5.211 -14.004,-9.215 -21.222,-11.95 -6.219,-2.55 -12.571,-4.211 -18.879,-4.211 -80.703,0 -146.129,163.43 -146.129,365.028 0,201.605 65.426,365.032 146.129,365.032 z"
         clip-rule="evenodd"
         id="path54" /></clipPath><linearGradient
       x1="-21.7239"
       y1="0"
       x2="21.7239"
       y2="0"
       gradientUnits="userSpaceOnUse"
       gradientTransform="matrix(2.79829,-9.6005,9.6005,2.79829,390.533,653.395)"
       spreadMethod="pad"
       id="linearGradient62"><stop
         style="stop-opacity:1;stop-color:#1f3863"
         offset="0"
         id="stop58" /><stop
         style="stop-opacity:1;stop-color:#1fd1ff"
         offset="1"
         id="stop60" /></linearGradient><clipPath
       clipPathUnits="userSpaceOnUse"
       id="clipPath72"><path
         d="M 444.5,1066.45 C 485.668,982.32 524.391,869.422 573.684,764.668 623.746,658.262 684.391,560.086 727.039,490.387 l 0.016,-0.043 0.234,-0.367 c 22.586,-36.766 60.949,-58.36 89.859,-58.977 l 1.036,-0.02 h 0.117 0.113 l 1.981,0.036 0.207,0.007 1.765,0.09 0.414,0.028 0.239,0.019 1.746,0.164 0.183,0.012 0.039,0.008 0.657,0.074 0.644,0.086 0.656,0.09 0.164,0.023 0.481,0.074 0.648,0.106 0.657,0.109 0.371,0.063 0.277,0.058 0.648,0.125 0.649,0.133 0.57,0.117 0.07,0.02 0.649,0.148 0.644,0.153 0.641,0.16 0.133,0.027 0.508,0.141 0.644,0.176 0.641,0.179 0.332,0.09 0.305,0.098 0.64,0.195 1.156,0.367 h 0.016 l 0.109,0.039 1.903,0.668 0.101,0.035 0.536,0.2 0.632,0.246 0.629,0.25 0.293,0.113 0.34,0.141 0.629,0.261 0.633,0.274 0.492,0.211 0.137,0.062 0.629,0.285 0.628,0.293 0.622,0.293 0.062,0.028 0.566,0.277 1.243,0.621 0.257,0.133 0.364,0.195 0.625,0.328 0.621,0.332 0.445,0.247 0.172,0.097 0.621,0.356 0.613,0.355 0.012,0.008 0.985,0.578 0.234,0.141 0.613,0.375 0.617,0.382 0.219,0.133 0.391,0.258 0.609,0.391 0.617,0.406 0.407,0.262 0.199,0.14 0.605,0.41 0.602,0.426 1.203,0.844 0.016,0.016 c 29.832,21.515 55.75,66.152 74.425,125.64 -38.254,-93.687 -67.824,-94.734 -96.609,-45.324 L 701.598,827.191 C 661.691,916.203 595.945,1030.96 554.297,1101.64 l -0.016,0.04 -0.234,0.37 c -22.586,36.77 -66.688,58.36 -95.598,58.97 l -1.035,0.02 h -0.113 -0.121 l -1.981,-0.03 -0.207,-0.01 -1.765,-0.09 -0.411,-0.03 -0.242,-0.02 -1.742,-0.16 -0.184,-0.02 h -0.039 l -0.656,-0.08 -0.648,-0.08 -0.653,-0.09 -0.168,-0.02 -0.48,-0.08 -0.649,-0.11 -0.652,-0.11 -0.371,-0.06 -0.277,-0.05 -0.649,-0.13 -0.648,-0.13 -0.574,-0.12 -0.067,-0.02 -0.648,-0.15 -0.641,-0.15 -0.644,-0.16 -0.133,-0.03 -0.512,-0.14 -0.641,-0.17 -0.644,-0.19 -0.332,-0.09 -0.301,-0.09 -0.644,-0.2 -1.157,-0.37 h -0.015 l -0.106,-0.03 -1.906,-0.67 -0.094,-0.03 -0.539,-0.21 -0.633,-0.24 -0.629,-0.25 -0.293,-0.11 -0.339,-0.15 -0.633,-0.26 -0.629,-0.27 -0.492,-0.21 -0.141,-0.06 -0.621,-0.29 -0.633,-0.29 -0.629,-0.29 -0.05,-0.03 -0.571,-0.28 -1.246,-0.62 -0.258,-0.14 -0.359,-0.19 -0.625,-0.33 -0.621,-0.33 -0.449,-0.25 -0.168,-0.09 -0.621,-0.36 -0.614,-0.36 h -0.011 l -0.989,-0.58 -0.234,-0.14 -0.613,-0.37 -0.614,-0.39 -0.218,-0.13 -0.395,-0.26 -0.605,-0.39 -0.618,-0.4 -0.402,-0.27 -0.199,-0.14 -0.613,-0.41 -0.606,-0.42 -1.195,-0.85 -0.012,-0.01 c -29.84,-21.52 -55.754,-66.15 -74.434,-125.65 38.258,93.69 73.567,94.74 102.352,45.34 z"
         clip-rule="evenodd"
         id="path70" /></clipPath><linearGradient
       x1="-36.8158"
       y1="0"
       x2="36.8158"
       y2="0"
       gradientUnits="userSpaceOnUse"
       gradientTransform="matrix(-5.38182,8.42828,-8.42828,-5.38182,663.215,832.65)"
       spreadMethod="pad"
       id="linearGradient78"><stop
         style="stop-opacity:1;stop-color:#0c1a35"
         offset="0"
         id="stop74" /><stop
         style="stop-opacity:1;stop-color:#2e5884"
         offset="1"
         id="stop76" /></linearGradient><clipPath
       clipPathUnits="userSpaceOnUse"
       id="clipPath88"><path
         d="m 1023.61,166.719 c 5.88,0 11.91,-0.114 18.08,-0.328 6.17,-0.223 12.23,-0.848 18.18,-1.875 5.95,-1.028 11.61,-2.61 16.97,-4.739 5.37,-2.129 10.11,-5.109 14.22,-8.929 4.12,-3.821 7.35,-8.301 9.7,-13.442 2.35,-5.144 4.12,-10.508 5.29,-16.093 1.18,-5.586 1.87,-11.278 2.09,-17.083 0.22,-5.8042 0.34,-11.2769 0.34,-16.4214 0,-5.1445 -0.12,-10.582 -0.34,-16.3125 -0.22,-5.7266 -0.91,-11.3867 -2.09,-16.9688 -1.17,-5.5859 -2.94,-10.9492 -5.29,-16.0898 -2.35,-5.1445 -5.58,-9.7031 -9.7,-13.6719 -4.11,-3.8164 -8.85,-6.7968 -14.22,-8.9218 -5.36,-2.1329 -11.02,-3.711 -16.97,-4.7383 -5.95,-1.0313 -12.05,-1.65628 -18.29,-1.87894 -6.25,-0.21875 -12.24,-0.32812 -17.97,-0.32812 -5.73,0 -11.72,0.10937 -17.96,0.32812 -6.248,0.22266 -12.345,0.84764 -18.295,1.87894 -5.953,1.0273 -11.609,2.6054 -16.972,4.7383 -5.367,2.125 -10.102,5.1054 -14.219,8.9218 -4.262,3.9688 -7.527,8.5274 -9.805,13.6719 -2.281,5.1406 -4.004,10.5039 -5.183,16.0898 -1.176,5.5821 -1.871,11.2422 -2.094,16.9688 -0.219,5.7305 -0.328,11.168 -0.328,16.3125 0,5.1445 0.109,10.6172 0.328,16.4214 0.223,5.805 0.918,11.497 2.094,17.083 1.179,5.585 2.902,10.949 5.183,16.093 2.278,5.141 5.543,9.621 9.805,13.442 4.117,3.82 8.852,6.8 14.219,8.929 5.363,2.129 11.019,3.711 16.972,4.739 5.95,1.027 12.012,1.652 18.185,1.875 6.17,0.214 12.19,0.328 18.07,0.328 z M 801.836,10.6836 c -4.465,0 -8.25,0.8242 -11.356,2.4727 -3.105,1.6484 -5.726,3.8359 -7.863,6.5507 -2.137,2.7188 -3.687,5.875 -4.66,9.4649 -0.973,3.5937 -1.457,7.332 -1.457,11.2109 0,7.5703 1.262,13.5899 3.789,18.0547 2.524,4.4648 6.016,8.4453 10.481,11.9375 l 66.687,50.965 c 1.551,1.164 2.328,2.035 2.328,2.621 0,0.969 -0.972,1.453 -2.914,1.453 h -74.836 v 39.602 h 122.016 c 1.355,0 3.586,-0.192 6.695,-0.578 3.106,-0.391 6.262,-1.508 9.465,-3.352 3.203,-1.844 6.066,-4.656 8.59,-8.445 2.523,-3.786 3.785,-9.075 3.785,-15.868 0,-8.543 -1.457,-15.144 -4.367,-19.804 -2.914,-4.66 -6.117,-8.348 -9.61,-11.067 L 853.961,56.3984 c -1.555,-1.164 -2.332,-2.2304 -2.332,-3.2031 0,-0.7773 0.293,-1.164 0.879,-1.164 0.777,0 1.355,0 1.746,0 h 75.711 V 10.6836 Z m -387.352,0 c -4.464,0 -8.25,0.8242 -11.355,2.4727 -3.106,1.6484 -5.727,3.8359 -7.863,6.5507 -2.137,2.7188 -3.688,5.875 -4.661,9.4649 -0.968,3.5937 -1.457,7.332 -1.457,11.2109 0,7.5703 1.262,13.5899 3.79,18.0547 2.523,4.4648 6.015,8.4453 10.48,11.9375 l 66.687,50.965 c 1.551,1.164 2.329,2.035 2.329,2.621 0,0.969 -0.973,1.453 -2.914,1.453 h -74.836 v 39.602 h 122.015 c 1.356,0 3.59,-0.192 6.696,-0.578 3.105,-0.391 6.261,-1.508 9.464,-3.352 3.204,-1.844 6.067,-4.656 8.59,-8.445 2.524,-3.786 3.785,-9.075 3.785,-15.868 0,-8.543 -1.457,-15.144 -4.367,-19.804 -2.914,-4.66 -6.117,-8.348 -9.609,-11.067 L 466.609,56.3984 c -1.554,-1.164 -2.328,-2.2304 -2.328,-3.2031 0,-0.7773 0.289,-1.164 0.875,-1.164 0.778,0 1.356,0 1.746,0 h 75.711 V 10.6836 Z M 259.262,147.98 c 1.176,2.797 2.57,5.368 4.187,7.719 1.617,2.352 3.75,4.332 6.391,5.949 2.648,1.618 5.914,2.868 9.808,3.747 3.895,0.882 8.856,1.324 14.879,1.324 3.672,0 7.239,-0.184 10.692,-0.551 3.453,-0.367 6.683,-1.176 9.695,-2.426 3.016,-1.246 5.809,-3.121 8.379,-5.621 2.57,-2.496 4.738,-5.875 6.504,-10.141 L 386.883,10.6602 H 334.426 L 322.301,42.4023 H 266.754 L 254.633,10.6602 H 202.172 Z M 278.66,77.6719 h 31.738 l -13.886,39.0121 c -0.293,0.586 -0.625,1.285 -0.992,2.093 -0.368,0.809 -0.7,1.215 -0.993,1.215 -0.293,0 -0.625,-0.406 -0.988,-1.215 -0.371,-0.808 -0.703,-1.507 -0.992,-2.093 z M 7.21875,210.305 H 57.0313 V 10.6602 H 7.21875 Z m 80.23045,-57.524 40.7228,57.188 h 57.633 l -68.274,-86.387 c -2.769,-3.508 -4.738,-5.953 -5.398,-7.719 -0.66,-1.758 -0.992,-3.008 -0.992,-3.742 0,-2.5 0.957,-5 2.863,-7.496 1.91,-2.5 3.707,-4.602 5.293,-6.3945 L 196.703,10.6602 H 136.75 L 93.957,65.3633 h 0.0118 L 72.5664,92.7227 c -1.9101,2.4961 -3.8945,5.4726 -5.9492,8.9253 -2.0586,3.45 -3.0859,6.868 -3.0859,10.25 0,2.938 0.7695,5.95 2.3125,9.036 1.5429,3.089 3.121,5.804 4.7382,8.156 l 16.875,23.691 z M 599.754,10.6602 h -52.461 l 19.285,46.3867 37.805,90.9331 0.055,0.133 19.226,46.254 c 1.18,2.789 2.574,5.363 4.191,7.711 1.618,2.356 3.747,4.336 6.391,5.953 2.645,1.617 5.914,2.864 9.809,3.75 3.894,0.879 8.851,1.321 14.879,1.321 6.023,0 10.984,-0.442 14.879,-1.321 3.894,-0.886 7.16,-2.133 9.808,-3.75 2.645,-1.617 4.777,-3.597 6.391,-5.953 1.617,-2.348 3.015,-4.922 4.187,-7.711 l 19.231,-46.254 0.05,-0.133 37.809,-90.9331 19.281,-46.3867 h -52.461 c -2.043,5.3554 -4.05,10.7148 -6.031,16.0781 l -11.961,31.875 H 617.75 l -11.961,-31.875 c -1.98,-5.3633 -3.988,-10.7227 -6.035,-16.0781 z m 87.125,83.2187 -25.965,69.1871 c -0.226,0.606 -0.621,1.289 -0.988,2.094 -0.367,0.809 -0.696,1.211 -0.992,1.211 -0.293,0 -0.621,-0.402 -0.996,-1.211 -0.364,-0.805 -0.762,-1.488 -0.989,-2.094 L 630.988,93.8789 Z M 1166.76,10.6602 V 126.602 h -55.11 v 38.351 h 160.03 v -38.351 h -55.11 V 10.6602 Z M 989.891,87.8086 c 0,-6.1719 0.328,-11.6445 0.992,-16.4219 0.66,-4.7734 2.238,-9.0742 4.738,-12.8945 1.613,-2.4961 3.418,-4.5195 5.399,-6.0625 1.99,-1.543 4.12,-2.6797 6.39,-3.4141 2.28,-0.7343 4.78,-1.2148 7.5,-1.4336 2.72,-0.2187 5.62,-0.332 8.7,-0.332 3.24,0 6.21,0.1133 8.93,0.332 2.72,0.2188 5.18,0.6993 7.39,1.4336 2.2,0.7344 4.25,1.8711 6.17,3.4141 1.91,1.543 3.74,3.5664 5.51,6.0625 2.79,4.1133 4.44,8.4844 4.96,13.1133 0.51,4.6289 0.77,10.0312 0.77,16.2031 0,3.3789 -0.04,6.3906 -0.11,9.0391 -0.08,2.6445 -0.26,5.1053 -0.55,7.3823 -0.3,2.278 -0.85,4.446 -1.66,6.504 -0.81,2.059 -1.94,4.188 -3.41,6.387 -3.38,5.004 -7.28,8.121 -11.68,9.371 -4.41,1.25 -9.85,1.875 -16.32,1.875 -3.23,0 -6.17,-0.113 -8.81,-0.332 -2.65,-0.219 -5.15,-0.734 -7.5,-1.543 -2.35,-0.808 -4.48,-1.949 -6.39,-3.418 -1.91,-1.469 -3.676,-3.453 -5.289,-5.953 -2.793,-4.109 -4.445,-8.41 -4.961,-12.891 -0.515,-4.4839 -0.769,-9.9527 -0.769,-16.4214 z"
         clip-rule="evenodd"
         id="path86" /></clipPath><linearGradient
       x1="-21.025499"
       y1="0"
       x2="21.025499"
       y2="0"
       gradientUnits="userSpaceOnUse"
       gradientTransform="matrix(3.88963,9.21253,-9.21253,3.88963,713.008,281.475)"
       spreadMethod="pad"
       id="linearGradient94"><stop
         style="stop-opacity:1;stop-color:#0d1f3d"
         offset="0"
         id="stop90" /><stop
         style="stop-opacity:1;stop-color:#5ecbed"
         offset="1"
         id="stop92" /></linearGradient></defs><sodipodi:namedview
     pagecolor="#ffffff"
     bordercolor="#666666"
     borderopacity="1"
     objecttolerance="10"
     gridtolerance="10"
     guidetolerance="10"
     inkscape:pageopacity="0"
     inkscape:pageshadow="2"
     inkscape:window-width="640"
     inkscape:window-height="480"
     id="namedview4" /><g
     id="g10"
     inkscape:groupmode="layer"
     inkscape:label="ink_ext_XXXXXX"
     transform="matrix(1.3333333,0,0,-1.3333333,0,177.33333)"><g
       id="g12"
       transform="scale(0.1)"><g
         id="g14"><g
           id="g16"
           clip-path="url(#clipPath20)"><path
             d="m 639.414,1323.86 c -293.019,0 -530.551,-237.53 -530.551,-530.547 0,-293.012 237.532,-530.543 530.551,-530.543 293.016,0 530.546,237.531 530.546,530.543 0,293.017 -237.53,530.547 -530.546,530.547"
             style="fill:url(#linearGradient26);fill-opacity:1;fill-rule:nonzero;stroke:none"
             id="path28" /></g></g><path
         d="m 637.801,1183.7 c -214.121,0 -387.692,-173.57 -387.692,-387.692 0,-214.121 173.571,-387.692 387.692,-387.692 214.113,0 387.689,173.571 387.689,387.692 0,214.122 -173.576,387.692 -387.689,387.692"
         style="fill:#1fd1ff;fill-opacity:1;fill-rule:evenodd;stroke:none"
         id="path30" /><path
         d="m 637.801,1172.04 c -207.68,0 -376.028,-168.36 -376.028,-376.032 0,-207.676 168.348,-376.028 376.028,-376.028 207.672,0 376.019,168.352 376.019,376.028 0,207.672 -168.347,376.032 -376.019,376.032"
         style="fill:#ffffff;fill-opacity:1;fill-rule:evenodd;stroke:none"
         id="path32" /><g
         id="g34"><g
           id="g36"
           clip-path="url(#clipPath40)"><path
             d="m 818.418,1161.04 c -11.672,0 -24.168,-4.52 -35.512,-9.54 v -0.01 c -3.179,-1.31 -6.332,-2.88 -9.457,-4.69 15.86,-6.14 31.199,-13.32 45.938,-21.46 l 1.14,-0.64 c 54.754,-29.67 81.036,-186.884 81.036,-328.692 0,-84.16 -24.227,-363.18 -81.934,-270.426 -12.594,20.238 -17.746,-76.18 -35.113,-84.703 10.882,-6.461 22.23,-9.899 33.902,-9.899 80.703,0 146.129,163.43 146.129,365.028 0,201.605 -65.426,365.032 -146.129,365.032"
             style="fill:url(#linearGradient46);fill-opacity:1;fill-rule:nonzero;stroke:none"
             id="path48" /></g></g><g
         id="g50"><g
           id="g52"
           clip-path="url(#clipPath56)"><path
             d="m 457.18,1161.04 c 11.672,0 23.019,-3.44 33.902,-9.9 -19.144,-4.59 -16.144,-117.7 -29.691,-95.75 -41.938,67.96 -56.758,-19.33 -67.036,-73.843 -10.476,-55.602 -15.5,-119.965 -15.5,-185.539 0,-142.731 31.723,-302.492 81.305,-331.492 1.063,-0.571 2.133,-1.137 3.199,-1.696 0.567,-0.277 1.125,-0.574 1.68,-0.875 10.473,-5.422 21.227,-10.363 32.242,-14.804 -6.914,-5.211 -14.004,-9.215 -21.222,-11.95 -6.219,-2.55 -12.571,-4.211 -18.879,-4.211 -80.703,0 -146.129,163.43 -146.129,365.028 0,201.605 65.426,365.032 146.129,365.032"
             style="fill:url(#linearGradient62);fill-opacity:1;fill-rule:nonzero;stroke:none"
             id="path64" /></g></g><g
         id="g66"><g
           id="g68"
           clip-path="url(#clipPath72)"><path
             d="M 444.5,1066.45 C 485.668,982.32 524.391,869.422 573.684,764.668 623.746,658.262 684.391,560.086 727.039,490.387 l 0.016,-0.043 0.234,-0.367 c 22.586,-36.766 60.949,-58.36 89.859,-58.977 l 1.036,-0.02 h 0.117 0.113 l 1.981,0.036 0.207,0.007 1.765,0.09 0.414,0.028 0.239,0.019 1.746,0.164 0.183,0.012 0.039,0.008 0.657,0.074 0.644,0.086 0.656,0.09 0.164,0.023 0.481,0.074 0.648,0.106 0.657,0.109 0.371,0.063 0.277,0.058 0.648,0.125 0.649,0.133 0.57,0.117 0.07,0.02 0.649,0.148 0.644,0.153 0.641,0.16 0.133,0.027 0.508,0.141 0.644,0.176 0.641,0.179 0.332,0.09 0.305,0.098 0.64,0.195 1.156,0.367 h 0.016 l 0.109,0.039 1.903,0.668 0.101,0.035 0.536,0.2 0.632,0.246 0.629,0.25 0.293,0.113 0.34,0.141 0.629,0.261 0.633,0.274 0.492,0.211 0.137,0.062 0.629,0.285 0.628,0.293 0.622,0.293 0.062,0.028 0.566,0.277 1.243,0.621 0.257,0.133 0.364,0.195 0.625,0.328 0.621,0.332 0.445,0.247 0.172,0.097 0.621,0.356 0.613,0.355 0.012,0.008 0.985,0.578 0.234,0.141 0.613,0.375 0.617,0.382 0.219,0.133 0.391,0.258 0.609,0.391 0.617,0.406 0.407,0.262 0.199,0.14 0.605,0.41 0.602,0.426 1.203,0.844 0.016,0.016 c 29.832,21.515 55.75,66.152 74.425,125.64 -38.254,-93.687 -67.824,-94.734 -96.609,-45.324 L 701.598,827.191 C 661.691,916.203 595.945,1030.96 554.297,1101.64 l -0.016,0.04 -0.234,0.37 c -22.586,36.77 -66.688,58.36 -95.598,58.97 l -1.035,0.02 h -0.113 -0.121 l -1.981,-0.03 -0.207,-0.01 -1.765,-0.09 -0.411,-0.03 -0.242,-0.02 -1.742,-0.16 -0.184,-0.02 h -0.039 l -0.656,-0.08 -0.648,-0.08 -0.653,-0.09 -0.168,-0.02 -0.48,-0.08 -0.649,-0.11 -0.652,-0.11 -0.371,-0.06 -0.277,-0.05 -0.649,-0.13 -0.648,-0.13 -0.574,-0.12 -0.067,-0.02 -0.648,-0.15 -0.641,-0.15 -0.644,-0.16 -0.133,-0.03 -0.512,-0.14 -0.641,-0.17 -0.644,-0.19 -0.332,-0.09 -0.301,-0.09 -0.644,-0.2 -1.157,-0.37 h -0.015 l -0.106,-0.03 -1.906,-0.67 -0.094,-0.03 -0.539,-0.21 -0.633,-0.24 -0.629,-0.25 -0.293,-0.11 -0.339,-0.15 -0.633,-0.26 -0.629,-0.27 -0.492,-0.21 -0.141,-0.06 -0.621,-0.29 -0.633,-0.29 -0.629,-0.29 -0.05,-0.03 -0.571,-0.28 -1.246,-0.62 -0.258,-0.14 -0.359,-0.19 -0.625,-0.33 -0.621,-0.33 -0.449,-0.25 -0.168,-0.09 -0.621,-0.36 -0.614,-0.36 h -0.011 l -0.989,-0.58 -0.234,-0.14 -0.613,-0.37 -0.614,-0.39 -0.218,-0.13 -0.395,-0.26 -0.605,-0.39 -0.618,-0.4 -0.402,-0.27 -0.199,-0.14 -0.613,-0.41 -0.606,-0.42 -1.195,-0.85 -0.012,-0.01 c -29.84,-21.52 -55.754,-66.15 -74.434,-125.65 38.258,93.69 73.567,94.74 102.352,45.34"
             style="fill:url(#linearGradient78);fill-opacity:1;fill-rule:nonzero;stroke:none"
             id="path80" /></g></g><g
         id="g82"><g
           id="g84"
           clip-path="url(#clipPath88)"><path
             d="m 1023.61,166.719 c 5.88,0 11.91,-0.114 18.08,-0.328 6.17,-0.223 12.23,-0.848 18.18,-1.875 5.95,-1.028 11.61,-2.61 16.97,-4.739 5.37,-2.129 10.11,-5.109 14.22,-8.929 4.12,-3.821 7.35,-8.301 9.7,-13.442 2.35,-5.144 4.12,-10.508 5.29,-16.093 1.18,-5.586 1.87,-11.278 2.09,-17.083 0.22,-5.8042 0.34,-11.2769 0.34,-16.4214 0,-5.1445 -0.12,-10.582 -0.34,-16.3125 -0.22,-5.7266 -0.91,-11.3867 -2.09,-16.9688 -1.17,-5.5859 -2.94,-10.9492 -5.29,-16.0898 -2.35,-5.1445 -5.58,-9.7031 -9.7,-13.6719 -4.11,-3.8164 -8.85,-6.7968 -14.22,-8.9218 -5.36,-2.1329 -11.02,-3.711 -16.97,-4.7383 -5.95,-1.0313 -12.05,-1.65628 -18.29,-1.87894 -6.25,-0.21875 -12.24,-0.32812 -17.97,-0.32812 -5.73,0 -11.72,0.10937 -17.96,0.32812 -6.248,0.22266 -12.345,0.84764 -18.295,1.87894 -5.953,1.0273 -11.609,2.6054 -16.972,4.7383 -5.367,2.125 -10.102,5.1054 -14.219,8.9218 -4.262,3.9688 -7.527,8.5274 -9.805,13.6719 -2.281,5.1406 -4.004,10.5039 -5.183,16.0898 -1.176,5.5821 -1.871,11.2422 -2.094,16.9688 -0.219,5.7305 -0.328,11.168 -0.328,16.3125 0,5.1445 0.109,10.6172 0.328,16.4214 0.223,5.805 0.918,11.497 2.094,17.083 1.179,5.585 2.902,10.949 5.183,16.093 2.278,5.141 5.543,9.621 9.805,13.442 4.117,3.82 8.852,6.8 14.219,8.929 5.363,2.129 11.019,3.711 16.972,4.739 5.95,1.027 12.012,1.652 18.185,1.875 6.17,0.214 12.19,0.328 18.07,0.328 z M 801.836,10.6836 c -4.465,0 -8.25,0.8242 -11.356,2.4727 -3.105,1.6484 -5.726,3.8359 -7.863,6.5507 -2.137,2.7188 -3.687,5.875 -4.66,9.4649 -0.973,3.5937 -1.457,7.332 -1.457,11.2109 0,7.5703 1.262,13.5899 3.789,18.0547 2.524,4.4648 6.016,8.4453 10.481,11.9375 l 66.687,50.965 c 1.551,1.164 2.328,2.035 2.328,2.621 0,0.969 -0.972,1.453 -2.914,1.453 h -74.836 v 39.602 h 122.016 c 1.355,0 3.586,-0.192 6.695,-0.578 3.106,-0.391 6.262,-1.508 9.465,-3.352 3.203,-1.844 6.066,-4.656 8.59,-8.445 2.523,-3.786 3.785,-9.075 3.785,-15.868 0,-8.543 -1.457,-15.144 -4.367,-19.804 -2.914,-4.66 -6.117,-8.348 -9.61,-11.067 L 853.961,56.3984 c -1.555,-1.164 -2.332,-2.2304 -2.332,-3.2031 0,-0.7773 0.293,-1.164 0.879,-1.164 0.777,0 1.355,0 1.746,0 h 75.711 V 10.6836 Z m -387.352,0 c -4.464,0 -8.25,0.8242 -11.355,2.4727 -3.106,1.6484 -5.727,3.8359 -7.863,6.5507 -2.137,2.7188 -3.688,5.875 -4.661,9.4649 -0.968,3.5937 -1.457,7.332 -1.457,11.2109 0,7.5703 1.262,13.5899 3.79,18.0547 2.523,4.4648 6.015,8.4453 10.48,11.9375 l 66.687,50.965 c 1.551,1.164 2.329,2.035 2.329,2.621 0,0.969 -0.973,1.453 -2.914,1.453 h -74.836 v 39.602 h 122.015 c 1.356,0 3.59,-0.192 6.696,-0.578 3.105,-0.391 6.261,-1.508 9.464,-3.352 3.204,-1.844 6.067,-4.656 8.59,-8.445 2.524,-3.786 3.785,-9.075 3.785,-15.868 0,-8.543 -1.457,-15.144 -4.367,-19.804 -2.914,-4.66 -6.117,-8.348 -9.609,-11.067 L 466.609,56.3984 c -1.554,-1.164 -2.328,-2.2304 -2.328,-3.2031 0,-0.7773 0.289,-1.164 0.875,-1.164 0.778,0 1.356,0 1.746,0 h 75.711 V 10.6836 Z M 259.262,147.98 c 1.176,2.797 2.57,5.368 4.187,7.719 1.617,2.352 3.75,4.332 6.391,5.949 2.648,1.618 5.914,2.868 9.808,3.747 3.895,0.882 8.856,1.324 14.879,1.324 3.672,0 7.239,-0.184 10.692,-0.551 3.453,-0.367 6.683,-1.176 9.695,-2.426 3.016,-1.246 5.809,-3.121 8.379,-5.621 2.57,-2.496 4.738,-5.875 6.504,-10.141 L 386.883,10.6602 H 334.426 L 322.301,42.4023 H 266.754 L 254.633,10.6602 H 202.172 Z M 278.66,77.6719 h 31.738 l -13.886,39.0121 c -0.293,0.586 -0.625,1.285 -0.992,2.093 -0.368,0.809 -0.7,1.215 -0.993,1.215 -0.293,0 -0.625,-0.406 -0.988,-1.215 -0.371,-0.808 -0.703,-1.507 -0.992,-2.093 z M 7.21875,210.305 H 57.0313 V 10.6602 H 7.21875 Z m 80.23045,-57.524 40.7228,57.188 h 57.633 l -68.274,-86.387 c -2.769,-3.508 -4.738,-5.953 -5.398,-7.719 -0.66,-1.758 -0.992,-3.008 -0.992,-3.742 0,-2.5 0.957,-5 2.863,-7.496 1.91,-2.5 3.707,-4.602 5.293,-6.3945 L 196.703,10.6602 H 136.75 L 93.957,65.3633 h 0.0118 L 72.5664,92.7227 c -1.9101,2.4961 -3.8945,5.4726 -5.9492,8.9253 -2.0586,3.45 -3.0859,6.868 -3.0859,10.25 0,2.938 0.7695,5.95 2.3125,9.036 1.5429,3.089 3.121,5.804 4.7382,8.156 l 16.875,23.691 z M 599.754,10.6602 h -52.461 l 19.285,46.3867 37.805,90.9331 0.055,0.133 19.226,46.254 c 1.18,2.789 2.574,5.363 4.191,7.711 1.618,2.356 3.747,4.336 6.391,5.953 2.645,1.617 5.914,2.864 9.809,3.75 3.894,0.879 8.851,1.321 14.879,1.321 6.023,0 10.984,-0.442 14.879,-1.321 3.894,-0.886 7.16,-2.133 9.808,-3.75 2.645,-1.617 4.777,-3.597 6.391,-5.953 1.617,-2.348 3.015,-4.922 4.187,-7.711 l 19.231,-46.254 0.05,-0.133 37.809,-90.9331 19.281,-46.3867 h -52.461 c -2.043,5.3554 -4.05,10.7148 -6.031,16.0781 l -11.961,31.875 H 617.75 l -11.961,-31.875 c -1.98,-5.3633 -3.988,-10.7227 -6.035,-16.0781 z m 87.125,83.2187 -25.965,69.1871 c -0.226,0.606 -0.621,1.289 -0.988,2.094 -0.367,0.809 -0.696,1.211 -0.992,1.211 -0.293,0 -0.621,-0.402 -0.996,-1.211 -0.364,-0.805 -0.762,-1.488 -0.989,-2.094 L 630.988,93.8789 Z M 1166.76,10.6602 V 126.602 h -55.11 v 38.351 h 160.03 v -38.351 h -55.11 V 10.6602 Z M 989.891,87.8086 c 0,-6.1719 0.328,-11.6445 0.992,-16.4219 0.66,-4.7734 2.238,-9.0742 4.738,-12.8945 1.613,-2.4961 3.418,-4.5195 5.399,-6.0625 1.99,-1.543 4.12,-2.6797 6.39,-3.4141 2.28,-0.7343 4.78,-1.2148 7.5,-1.4336 2.72,-0.2187 5.62,-0.332 8.7,-0.332 3.24,0 6.21,0.1133 8.93,0.332 2.72,0.2188 5.18,0.6993 7.39,1.4336 2.2,0.7344 4.25,1.8711 6.17,3.4141 1.91,1.543 3.74,3.5664 5.51,6.0625 2.79,4.1133 4.44,8.4844 4.96,13.1133 0.51,4.6289 0.77,10.0312 0.77,16.2031 0,3.3789 -0.04,6.3906 -0.11,9.0391 -0.08,2.6445 -0.26,5.1053 -0.55,7.3823 -0.3,2.278 -0.85,4.446 -1.66,6.504 -0.81,2.059 -1.94,4.188 -3.41,6.387 -3.38,5.004 -7.28,8.121 -11.68,9.371 -4.41,1.25 -9.85,1.875 -16.32,1.875 -3.23,0 -6.17,-0.113 -8.81,-0.332 -2.65,-0.219 -5.15,-0.734 -7.5,-1.543 -2.35,-0.808 -4.48,-1.949 -6.39,-3.418 -1.91,-1.469 -3.676,-3.453 -5.289,-5.953 -2.793,-4.109 -4.445,-8.41 -4.961,-12.891 -0.515,-4.4839 -0.769,-9.9527 -0.769,-16.4214"
             style="fill:url(#linearGradient94);fill-opacity:1;fill-rule:nonzero;stroke:none"
             id="path96" /></g></g></g></g></svg>
